<svg width="80" height="80" fill="none" xmlns="http://www.w3.org/2000/svg"><path d="M9.2 59.692c.07.337.103.68.097 1.024h54.879c-.04-.086-.082-.172-.123-.255-.748-1.497-1.814-2.721-2.72-4.092-1.15-1.743-2.186-3.568-2.912-5.591-.78-2.175-1.18-4.512-1.821-6.745-1.186-4.134-2.775-8.269-6.402-10.313-3.601-2.03-5.697-.627-9.504-.316v-.196c-5.407.396-10.864-2.86-16.236-1.317-5.409 1.553-9.602 6.114-10.408 11.805-.543 3.841-2.094 7.126-4.322 10.246a9.387 9.387 0 0 0-1.512 3.239 5.81 5.81 0 0 0-.108.526c.668.381.957 1.257 1.092 1.985Z" fill="#E34B4D"/><path d="M64.176 60.742H9.297a.026.026 0 0 1-.02-.008.028.028 0 0 1-.007-.02 4.484 4.484 0 0 0-.097-1.017c-.185-1.002-.547-1.664-1.078-1.967a.027.027 0 0 1-.013-.027c.031-.197.058-.317.109-.529a9.36 9.36 0 0 1 1.515-3.248c2.441-3.419 3.813-6.671 4.318-10.234.792-5.593 4.882-10.234 10.428-11.823 3.056-.878 6.189-.195 9.22.465 2.304.501 4.688 1.022 7.022.85l.01.002a.026.026 0 0 1 .01.006.026.026 0 0 1 .006.009.026.026 0 0 1 .002.01v.161c1.033-.086 1.924-.249 2.786-.406 2.282-.418 4.082-.748 6.705.729 3.618 2.039 5.221 6.169 6.414 10.328.249.864.464 1.76.673 2.627.33 1.37.67 2.786 1.145 4.116.632 1.76 1.557 3.535 2.909 5.586.31.47.644.931.967 1.374.62.853 1.26 1.735 1.753 2.721a10.248 10.248 0 0 1 .127.267.026.026 0 0 1-.003.013.029.029 0 0 1-.022.015Zm-54.851-.054h54.809c-.035-.071-.072-.143-.105-.214-.49-.983-1.13-1.862-1.75-2.715-.323-.445-.658-.905-.968-1.375-1.354-2.054-2.28-3.832-2.914-5.597-.478-1.334-.82-2.75-1.15-4.121-.208-.866-.424-1.764-.671-2.623-1.19-4.154-2.788-8.27-6.39-10.299-2.602-1.466-4.396-1.139-6.668-.722-.871.16-1.773.324-2.82.41-.004 0-.008 0-.011-.002a.026.026 0 0 1-.01-.006.029.029 0 0 1-.008-.02v-.168c-2.332.166-4.71-.352-7.009-.853-3.023-.66-6.15-1.34-9.194-.466-5.523 1.587-9.6 6.212-10.39 11.783-.505 3.572-1.88 6.831-4.326 10.257a9.292 9.292 0 0 0-1.507 3.23 7.65 7.65 0 0 0-.105.506c.536.316.902.986 1.087 1.994.07.33.104.665.1 1.001Z" fill="#0E0E0E"/><path d="M8.113 60.228c.029.163.063.324.105.486h.475a2.234 2.234 0 0 1-.58-.486Z" fill="#FF7961"/><path d="M8.693 60.742h-.475a.029.029 0 0 1-.027-.02c-.04-.155-.071-.319-.105-.488a.026.026 0 0 1 .047-.022 2.2 2.2 0 0 0 .573.48c.005.003.009.007.011.013a.026.026 0 0 1-.024.037Zm-.454-.054h.358a2.267 2.267 0 0 1-.441-.368c.025.127.053.25.08.368h.003Z" fill="#0E0E0E"/><path d="M20.097 36.724a2.22 2.22 0 0 0 1.622-3.736 14.74 14.74 0 0 0-3.562 2.595 2.22 2.22 0 0 0 1.94 1.141Z" fill="#FF7961"/><path d="M20.097 36.75a2.25 2.25 0 0 1-1.963-1.154.027.027 0 0 1-.004-.017c.001-.006.004-.011.008-.015a14.782 14.782 0 0 1 3.568-2.6.026.026 0 0 1 .032.006 2.245 2.245 0 0 1-1.64 3.78Zm-1.907-1.163a2.193 2.193 0 1 0 3.523-2.566 14.714 14.714 0 0 0-3.523 2.566Z" fill="#0E0E0E"/><path d="M26.77 36.724a2.22 2.22 0 1 0 0-4.44 2.22 2.22 0 0 0 0 4.44Z" fill="#FF7961"/><path d="M26.77 36.75a2.247 2.247 0 1 1-.002-4.493 2.247 2.247 0 0 1 .002 4.494Zm0-4.44a2.194 2.194 0 1 0 0 4.39 2.194 2.194 0 0 0 0-4.39Z" fill="#0E0E0E"/><path d="M31.459 33.802a2.22 2.22 0 1 0 4.186-1.031c-1.115-.215-2.23-.478-3.344-.708a2.216 2.216 0 0 0-.842 1.74Z" fill="#FF7961"/><path d="M33.679 36.05a2.246 2.246 0 0 1-1.385-4.015.027.027 0 0 1 .012 0c.455.094.917.195 1.364.292.65.143 1.32.286 1.98.417a.028.028 0 0 1 .02.013 2.247 2.247 0 0 1-1.991 3.29v.004Zm-1.372-3.957a2.194 2.194 0 1 0 3.32.706c-.656-.128-1.323-.273-1.968-.413-.444-.1-.901-.2-1.352-.293Z" fill="#0E0E0E"/><path d="M39.322 36.443a2.22 2.22 0 0 0 2.037-3.105c-.215.025-.436.048-.663.067v-.197c-1.09.08-2.18.011-3.272-.136a2.22 2.22 0 0 0 1.898 3.37Z" fill="#FF7961"/><path d="M39.322 36.47a2.248 2.248 0 0 1-1.921-3.413.026.026 0 0 1 .027-.012c1.212.163 2.28.209 3.266.136a.026.026 0 0 1 .02.007.026.026 0 0 1 .006.01.028.028 0 0 1 .002.01v.164c.205-.017.412-.038.633-.063a.026.026 0 0 1 .028.016 2.246 2.246 0 0 1-2.06 3.142v.003Zm-1.885-3.37a2.194 2.194 0 1 0 3.905.267 19.935 19.935 0 0 1-.656.063.028.028 0 0 1-.01-.006.029.029 0 0 1-.008-.02v-.168c-.976.07-2.033.025-3.23-.136Z" fill="#0E0E0E"/><path d="M44.57 34.504a2.22 2.22 0 1 0 3.777-1.581c-1.003-.293-1.911-.324-2.832-.237a2.219 2.219 0 0 0-.946 1.818Z" fill="#FF7961"/><path d="M46.79 36.75a2.246 2.246 0 0 1-1.29-4.086.02.02 0 0 1 .013-.004c1.06-.1 1.934-.027 2.843.237a.04.04 0 0 1 .011.006 2.247 2.247 0 0 1-1.575 3.848h-.003Zm-1.265-4.038a2.193 2.193 0 1 0 2.809.234c-.896-.26-1.762-.332-2.81-.234Z" fill="#0E0E0E"/><path d="M52.329 36.443c.277 0 .551-.051.81-.152-.803-1.028-1.762-1.909-2.937-2.57l-.03-.016a2.219 2.219 0 0 0 2.159 2.738h-.002Z" fill="#FF7961"/><path d="M52.329 36.47a2.247 2.247 0 0 1-2.184-2.771c0-.004.002-.008.005-.011a.027.027 0 0 1 .01-.008.026.026 0 0 1 .024.002l.03.016c1.118.63 2.08 1.473 2.941 2.578a.025.025 0 0 1 .006.01v.013a.027.027 0 0 1-.017.018c-.26.102-.536.153-.815.153Zm-2.14-2.722a2.193 2.193 0 0 0 2.903 2.534c-.852-1.086-1.802-1.916-2.904-2.536v.002Z" fill="#0E0E0E"/><path d="M16.744 41.56a2.22 2.22 0 1 0 .063-4.44 14.235 14.235 0 0 0-1.928 3.423 2.22 2.22 0 0 0 1.865 1.016Z" fill="#FF7961"/><path d="M16.744 41.586a2.242 2.242 0 0 1-1.887-1.027.025.025 0 0 1 0-.024 14.274 14.274 0 0 1 1.93-3.43.027.027 0 0 1 .01-.009.027.027 0 0 1 .012-.002 2.246 2.246 0 0 1-.063 4.492h-.002Zm-1.835-1.044a2.194 2.194 0 1 0 1.91-3.394 14.208 14.208 0 0 0-1.91 3.394Z" fill="#0E0E0E"/><path d="M23.417 41.56a2.22 2.22 0 1 0 0-4.44 2.22 2.22 0 0 0 0 4.44Z" fill="#FF7961"/><path d="M23.418 41.586a2.247 2.247 0 1 1 0-4.494 2.247 2.247 0 0 1 0 4.494Zm0-4.44a2.193 2.193 0 1 0 0 4.387 2.193 2.193 0 0 0 0-4.387Z" fill="#0E0E0E"/><path d="M30.246 41.795a2.22 2.22 0 1 0 0-4.44 2.22 2.22 0 0 0 0 4.44Z" fill="#FF7961"/><path d="M30.246 41.823a2.248 2.248 0 1 1 0-4.496 2.248 2.248 0 0 1 0 4.496Zm0-4.44a2.193 2.193 0 1 0 .004 4.386 2.193 2.193 0 0 0-.004-4.386Z" fill="#0E0E0E"/><path d="M37.12 41.529a2.22 2.22 0 1 0-.711-4.383 2.22 2.22 0 0 0 .711 4.383Z" fill="#FF7961"/><path d="M36.763 41.586a2.247 2.247 0 1 1 0-4.494 2.247 2.247 0 0 1 0 4.494Zm0-4.44a2.193 2.193 0 1 0 .004 4.386 2.193 2.193 0 0 0-.004-4.386Z" fill="#0E0E0E"/><path d="M43.436 41.56a2.22 2.22 0 1 0 0-4.44 2.22 2.22 0 0 0 0 4.44Z" fill="#FF7961"/><path d="M43.436 41.586a2.247 2.247 0 1 1 0-4.493 2.247 2.247 0 0 1 0 4.493Zm0-4.44a2.193 2.193 0 1 0 0 4.385 2.193 2.193 0 0 0 0-4.385Z" fill="#0E0E0E"/><path d="M51.747 39.258a2.22 2.22 0 1 0-4.419-.438 2.22 2.22 0 0 0 4.42.438Z" fill="#FF7961"/><path d="M49.542 41.29a2.248 2.248 0 1 1 0-4.496 2.248 2.248 0 0 1 0 4.495Zm0-4.44a2.194 2.194 0 1 0 0 4.387 2.194 2.194 0 0 0 0-4.388Z" fill="#0E0E0E"/><path d="M53.462 39.603a2.22 2.22 0 0 0 2.45 2.209c-.464-1.361-1.006-2.682-1.688-3.882a2.214 2.214 0 0 0-.761 1.673Z" fill="#FF7961"/><path d="M55.683 41.852a2.247 2.247 0 0 1-1.476-3.938.027.027 0 0 1 .022-.006c.004 0 .007.002.01.004a.028.028 0 0 1 .008.009c.616 1.084 1.17 2.355 1.69 3.886a.027.027 0 0 1 0 .023.028.028 0 0 1-.02.012c-.078.008-.156.011-.234.01Zm-1.466-3.878a2.192 2.192 0 0 0 1.466 3.825c.063 0 .129 0 .193-.009-.513-1.5-1.056-2.748-1.659-3.816Z" fill="#0E0E0E"/><path d="M15.644 44.727a2.22 2.22 0 0 0-1.407-2.065c-.072.34-.137.685-.187 1.034-.155 1.101-.4 2.187-.73 3.249h.105a2.22 2.22 0 0 0 2.22-2.218Z" fill="#FF7961"/><path d="M13.423 46.974h-.106a.028.028 0 0 1-.02-.012.028.028 0 0 1-.004-.023c.33-1.06.574-2.144.73-3.243a14.196 14.196 0 0 1 .192-1.048.025.025 0 0 1 .009-.007.024.024 0 0 1 .022 0 2.247 2.247 0 0 1-.823 4.337v-.004Zm-.071-.055h.071a2.194 2.194 0 0 0 .833-4.225c-.071.333-.132.67-.18 1.002a20.722 20.722 0 0 1-.721 3.223h-.003Z" fill="#0E0E0E"/><path d="M22.289 44.72a2.22 2.22 0 1 0-4.383-.712 2.22 2.22 0 0 0 4.383.711Z" fill="#FF7961"/><path d="M20.097 46.609a2.248 2.248 0 1 1 0-4.496 2.248 2.248 0 0 1 0 4.496Zm0-4.44a2.193 2.193 0 1 0-.002 4.385 2.193 2.193 0 0 0 .002-4.385Z" fill="#0E0E0E"/><path d="M26.77 46.947a2.22 2.22 0 1 0 0-4.44 2.22 2.22 0 0 0 0 4.44Z" fill="#FF7961"/><path d="M26.77 46.974a2.246 2.246 0 1 1-.002-4.492 2.246 2.246 0 0 1 .002 4.492Zm0-4.44a2.193 2.193 0 1 0-.001 4.387 2.193 2.193 0 0 0 .001-4.387Z" fill="#0E0E0E"/><path d="M33.443 46.947a2.22 2.22 0 1 0 0-4.44 2.22 2.22 0 0 0 0 4.44Z" fill="#FF7961"/><path d="M33.444 46.974a2.246 2.246 0 1 1-.002-4.493 2.246 2.246 0 0 1 .002 4.493Zm0-4.44a2.193 2.193 0 1 0-.001 4.387 2.193 2.193 0 0 0 .001-4.387Z" fill="#0E0E0E"/><path d="M40.116 46.947a2.22 2.22 0 1 0 0-4.44 2.22 2.22 0 0 0 0 4.44Z" fill="#FF7961"/><path d="M40.116 46.974a2.246 2.246 0 1 1-.002-4.492 2.246 2.246 0 0 1 .002 4.492Zm0-4.44a2.194 2.194 0 1 0 0 4.388 2.194 2.194 0 0 0 0-4.388Z" fill="#0E0E0E"/><path d="M47.386 46.48a2.22 2.22 0 1 0-1.7-4.103 2.22 2.22 0 0 0 1.7 4.102Z" fill="#FF7961"/><path d="M46.537 46.676a2.247 2.247 0 1 1 0-4.493 2.247 2.247 0 0 1 0 4.493Zm0-4.44a2.193 2.193 0 1 0 0 4.386 2.193 2.193 0 0 0 0-4.386Z" fill="#0E0E0E"/><path d="M12.658 49.562a2.22 2.22 0 0 0-.083-.6c-.394.92-.846 1.814-1.352 2.677a2.22 2.22 0 0 0 1.435-2.077Z" fill="#FF7961"/><path d="M11.223 51.666a.025.025 0 0 1-.026-.025 24.14 24.14 0 0 0 1.356-2.69.027.027 0 0 1 .027-.017.027.027 0 0 1 .023.02 2.245 2.245 0 0 1-1.367 2.71.025.025 0 0 1-.013.002Zm1.346-2.622c-.378.872-.806 1.72-1.284 2.542a2.205 2.205 0 0 0 1.346-2.024c0-.174-.021-.348-.062-.518Z" fill="#0E0E0E"/><path d="M17.432 51.905a2.22 2.22 0 1 0-1.7-4.102 2.22 2.22 0 0 0 1.7 4.102Z" fill="#FF7961"/><path d="M16.583 52.101a2.247 2.247 0 1 1 0-4.494 2.247 2.247 0 0 1 0 4.494Zm0-4.44a2.194 2.194 0 1 0 0 4.389 2.194 2.194 0 0 0 0-4.389Z" fill="#0E0E0E"/><path d="M21.867 51.152c1.268-.458 2.534-.876 3.724-1.132a2.22 2.22 0 1 0-3.724 1.132Z" fill="#FF7961"/><path d="M21.867 51.179a.029.029 0 0 1-.018-.007 2.247 2.247 0 1 1 3.767-1.146.027.027 0 0 1-.021.02c-1.29.278-2.663.75-3.719 1.131l-.009.002Zm1.55-3.81a2.194 2.194 0 0 0-1.542 3.752c1.049-.38 2.413-.848 3.691-1.123a2.196 2.196 0 0 0-2.149-2.628Z" fill="#0E0E0E"/><path d="M28.091 49.772c1.504.084 2.556.716 3.265 1.615a2.22 2.22 0 1 0-3.477-1.62c.071 0 .143 0 .212.005Z" fill="#FF7961"/><path d="M31.356 51.413a.03.03 0 0 1-.022-.01c-.781-.99-1.872-1.528-3.244-1.605-.054 0-.108-.004-.163-.005h-.048a.027.027 0 0 1-.026-.024 2.247 2.247 0 1 1 3.518 1.64.024.024 0 0 1-.015.004Zm-3.452-1.674h.026c.055 0 .11 0 .164.006 1.378.076 2.477.616 3.268 1.605a2.192 2.192 0 1 0-3.458-1.61Z" fill="#0E0E0E"/><path d="M38.127 51.26a2.224 2.224 0 1 0-2.354-3.774 2.224 2.224 0 0 0 2.354 3.774Z" fill="#FF7961"/><path d="M36.935 51.617a2.247 2.247 0 1 1 0-4.494 2.247 2.247 0 0 1 0 4.494Zm0-4.44a2.194 2.194 0 1 0 .004 4.387 2.194 2.194 0 0 0-.004-4.387Z" fill="#0E0E0E"/><path d="M44.285 51.614a2.22 2.22 0 1 0-1.7-4.102 2.22 2.22 0 0 0 1.7 4.102Z" fill="#FF7961"/><path d="M43.436 51.81a2.247 2.247 0 1 1 0-4.494 2.247 2.247 0 0 1 0 4.494Zm0-4.44a2.193 2.193 0 1 0 0 4.386 2.193 2.193 0 0 0 0-4.386Z" fill="#0E0E0E"/><path d="M50.109 51.782a2.22 2.22 0 0 1-.925-4.238 2.219 2.219 0 0 0-.866 4.218 2.22 2.22 0 0 0 1.896.015.857.857 0 0 1-.105.005Z" fill="#FF7961"/><path d="M49.29 52.009a2.246 2.246 0 0 1-.107-4.491c.006 0 .013 0 .018.004a.027.027 0 0 1 .01.016.027.027 0 0 1-.015.03 2.194 2.194 0 0 0 .913 4.188h.104a.027.027 0 0 1 .012.051 2.232 2.232 0 0 1-.936.202Zm-.241-4.428a2.193 2.193 0 1 0 1.028 4.23 2.246 2.246 0 0 1-1.027-4.224l-.001-.006Z" fill="#0E0E0E"/><path d="M9.805 54.002c0-.053 0-.107-.007-.16l-.071.1a9.858 9.858 0 0 0-1.125 2.033 2.22 2.22 0 0 0 1.203-1.973Z" fill="#FF7961"/><path d="M8.604 56.003c-.004 0-.007 0-.01-.002a.025.025 0 0 1-.008-.005.026.026 0 0 1-.007-.03 9.907 9.907 0 0 1 1.127-2.04l.072-.1a.027.027 0 0 1 .048.013 2.24 2.24 0 0 1-1.222 2.163Zm1.172-2.082-.026.037a9.892 9.892 0 0 0-1.093 1.959 2.185 2.185 0 0 0 1.12-1.997Z" fill="#0E0E0E"/><path d="M13.496 56.91a2.22 2.22 0 1 0 0-4.44 2.22 2.22 0 0 0 0 4.44Z" fill="#FF7961"/><path d="M13.496 56.937a2.247 2.247 0 1 1 0-4.494 2.247 2.247 0 0 1 0 4.494Zm0-4.44a2.194 2.194 0 1 0 0 4.387 2.194 2.194 0 0 0 0-4.387Z" fill="#0E0E0E"/><path d="M20.605 56.692a2.22 2.22 0 1 0-1.02-4.321 2.22 2.22 0 0 0 1.02 4.321Z" fill="#FF7961"/><path d="M20.097 56.778a2.248 2.248 0 1 1 0-4.497 2.248 2.248 0 0 1 0 4.497Zm0-4.44a2.193 2.193 0 1 0-.001 4.388 2.193 2.193 0 0 0 .001-4.39v.001Z" fill="#0E0E0E"/><path d="M26.215 56.75a2.22 2.22 0 1 0 0-4.44 2.22 2.22 0 0 0 0 4.44Z" fill="#FF7961"/><path d="M26.215 56.778a2.248 2.248 0 1 1 0-4.496 2.248 2.248 0 0 1 0 4.496Zm0-4.44a2.193 2.193 0 1 0-.001 4.388 2.193 2.193 0 0 0 .001-4.39v.001Z" fill="#0E0E0E"/><path d="M24.707 50.236c-.885.237-1.801.544-2.721.874a2.22 2.22 0 0 0 2.721-.874Z" fill="#FF7961"/><path d="M22.824 51.301c-.291 0-.58-.057-.849-.168a.027.027 0 0 1-.017-.025c0-.006.002-.01.005-.015a.03.03 0 0 1 .013-.01 35.103 35.103 0 0 1 2.721-.875.027.027 0 0 1 .016 0c.005.002.01.005.013.01a.027.027 0 0 1 0 .03 2.238 2.238 0 0 1-1.902 1.053Zm-.762-.19a2.194 2.194 0 0 0 2.581-.832c-.735.2-1.559.466-2.581.832Z" fill="#0E0E0E"/><path d="M28.727 51.71a2.22 2.22 0 0 0 1.89-1.056c-.644-.497-1.474-.825-2.526-.883a8.128 8.128 0 0 0-1.554.08 2.22 2.22 0 0 0 2.19 1.86Z" fill="#FF7961"/><path d="M28.727 51.737a2.236 2.236 0 0 1-2.217-1.892c.001-.003.002-.006.005-.009a.028.028 0 0 1 .017-.01 8.059 8.059 0 0 1 1.561-.081c.991.054 1.846.353 2.54.887.006.005.01.01.01.017a.028.028 0 0 1-.003.02 2.235 2.235 0 0 1-1.913 1.068Zm-2.16-1.862a2.194 2.194 0 0 0 4.011.787c-.683-.517-1.52-.807-2.491-.859a8.04 8.04 0 0 0-1.518.072h-.001Z" fill="#0E0E0E"/><path d="M33.443 56.75a2.22 2.22 0 1 0 0-4.44 2.22 2.22 0 0 0 0 4.44Z" fill="#FF7961"/><path d="M33.444 56.778a2.248 2.248 0 1 1 0-4.497 2.248 2.248 0 0 1 0 4.497Zm0-4.44a2.193 2.193 0 1 0-.001 4.388 2.193 2.193 0 0 0 .001-4.39v.001Z" fill="#0E0E0E"/><path d="M40.624 56.693a2.22 2.22 0 1 0-1.02-4.321 2.22 2.22 0 0 0 1.02 4.321Z" fill="#FF7961"/><path d="M40.116 56.778a2.248 2.248 0 1 1 0-4.496 2.248 2.248 0 0 1 0 4.496Zm0-4.44a2.193 2.193 0 1 0 0 4.388 2.193 2.193 0 0 0 0-4.39v.001Z" fill="#0E0E0E"/><path d="M46.79 56.75a2.22 2.22 0 1 0 0-4.44 2.22 2.22 0 0 0 0 4.44Z" fill="#FF7961"/><path d="M46.79 56.778a2.248 2.248 0 1 1-.002-4.496 2.248 2.248 0 0 1 .001 4.496Zm0-4.44a2.194 2.194 0 1 0 .002 4.388 2.194 2.194 0 0 0-.003-4.39v.001Z" fill="#0E0E0E"/><path d="M8.937 58.852c.471.267.984.386 1.5.533.451.129.899.272 1.344.421a2.22 2.22 0 0 0-3.581-2.54c-.037.139-.065.28-.084.422-.017.094.49.976.821 1.164Z" fill="#FF7961"/><path d="M11.78 59.833h-.008a29.5 29.5 0 0 0-1.342-.42c-.077-.023-.153-.044-.23-.065-.43-.12-.872-.242-1.276-.471-.32-.182-.86-1.068-.839-1.19.015-.111.036-.221.063-.33l.022-.096a.029.029 0 0 1 .007-.013 2.224 2.224 0 0 1 1.628-.7 2.25 2.25 0 0 1 2 3.272.029.029 0 0 1-.024.013Zm-2.83-1.002c.399.225.819.342 1.265.466l.23.064c.4.114.82.246 1.322.415a2.195 2.195 0 0 0-2.824-2.999 2.17 2.17 0 0 0-.722.503l-.021.09a2.765 2.765 0 0 0-.061.324c-.006.08.478.947.811 1.136Z" fill="#0E0E0E"/><path d="M16.744 56.91a2.22 2.22 0 0 0-1.763 3.57h3.525a2.22 2.22 0 0 0-1.762-3.57Z" fill="#FF7961"/><path d="M18.506 60.507H14.98a.026.026 0 0 1-.012-.003.026.026 0 0 1-.01-.008 2.226 2.226 0 0 1-.462-1.365 2.249 2.249 0 1 1 4.494 0c.001.494-.162.974-.464 1.365a.026.026 0 0 1-.021.011Zm-3.51-.053h3.498c.29-.38.446-.845.445-1.323a2.194 2.194 0 1 0-4.386 0c-.002.477.153.942.442 1.322h.002Z" fill="#0E0E0E"/><path d="M23.418 56.91a2.22 2.22 0 0 0-1.762 3.57h3.524a2.22 2.22 0 0 0-1.762-3.57Z" fill="#FF7961"/><path d="M25.179 60.507h-3.525a.026.026 0 0 1-.012-.003.026.026 0 0 1-.01-.008 2.226 2.226 0 0 1-.462-1.365 2.249 2.249 0 1 1 4.494 0c.001.494-.162.974-.463 1.365a.026.026 0 0 1-.022.011Zm-3.51-.053h3.496c.29-.38.446-.845.445-1.323a2.192 2.192 0 0 0-4.23-.852c-.109.27-.162.56-.156.852-.002.477.154.942.444 1.322h.002Z" fill="#0E0E0E"/><path d="M29.792 56.75a2.22 2.22 0 0 0-1.763 3.57h3.524a2.22 2.22 0 0 0-1.761-3.57Z" fill="#FF7961"/><path d="M31.55 60.347h-3.524l-.012-.003a.025.025 0 0 1-.01-.008 2.226 2.226 0 0 1-.463-1.366 2.247 2.247 0 0 1 4.494 0c.002.494-.161.975-.463 1.366a.026.026 0 0 1-.021.01Zm-3.509-.054h3.499c.29-.38.445-.845.444-1.323a2.194 2.194 0 0 0-4.387 0c-.002.478.153.943.442 1.323h.002Z" fill="#0E0E0E"/><path d="M31.712 31.93c3.265 2.034 6.673 7.407 7.369 9.712 0 0 1.262-3.219 4.363-4.043 2.834-.753 4.55-.008 4.55-.008s3.543-4.993 6.23-8.88c2.688-3.886 2.177-9.39-1.75-12.035-3.926-2.647-9.859-1.708-13.572 4.78-3.713 6.487-4.266 8.14-7.19 10.473Z" fill="#E69C9C"/><path d="M39.08 41.669a.027.027 0 0 1-.024-.02c-.364-1.205-1.432-3.15-2.72-4.95-1.542-2.157-3.19-3.843-4.64-4.747a.026.026 0 0 1-.01-.01.026.026 0 0 1-.003-.011c0-.005 0-.009.002-.013a.029.029 0 0 1 .008-.01c2.377-1.897 3.203-3.372 5.41-7.316.508-.91 1.086-1.943 1.775-3.147.95-1.66 2.081-3.02 3.366-4.046 1.188-.95 2.477-1.59 3.833-1.907a8.077 8.077 0 0 1 6.416 1.164c1.72 1.161 2.889 2.966 3.287 5.077.45 2.39-.109 4.941-1.533 6.996-2.657 3.84-6.195 8.828-6.23 8.88a.027.027 0 0 1-.033.01c-.017-.008-1.741-.734-4.533.009-3.051.81-4.332 3.994-4.345 4.026a.027.027 0 0 1-.025.015Zm-7.322-9.74c1.449.91 3.09 2.59 4.622 4.738 1.265 1.77 2.318 3.68 2.704 4.895.206-.472 1.525-3.24 4.352-3.99 1.468-.391 2.632-.373 3.348-.287.41.04.813.132 1.2.272.233-.328 3.64-5.135 6.219-8.86 1.415-2.044 1.97-4.58 1.523-6.956-.395-2.099-1.555-3.889-3.266-5.042a8.02 8.02 0 0 0-6.374-1.156c-1.348.315-2.63.953-3.811 1.897-1.276 1.02-2.404 2.377-3.35 4.03a343.433 343.433 0 0 0-1.776 3.147c-2.201 3.935-3.028 5.418-5.39 7.31v.002Z" fill="#0E0E0E"/><path d="M56.705 32.735c1.017-1.186.949-2.913-.152-3.858-1.101-.944-2.819-.749-3.836.437s-.949 2.913.153 3.858c1.1.944 2.818.748 3.835-.437Z" fill="#6DADDA"/><path d="M54.522 33.802a2.645 2.645 0 0 1-1.514-.484 2.473 2.473 0 0 1-.672-.739c-.753-1.266-.3-2.992 1.008-3.848a2.78 2.78 0 0 1 2.16-.409 2.472 2.472 0 0 1 1.584 1.152c.753 1.266.3 2.993-1.009 3.848a2.84 2.84 0 0 1-1.557.48Zm.38-5.493a2.793 2.793 0 0 0-1.528.469c-1.286.84-1.73 2.534-.992 3.775a2.42 2.42 0 0 0 1.549 1.127 2.725 2.725 0 0 0 2.119-.4c1.289-.841 1.73-2.534.992-3.776a2.423 2.423 0 0 0-1.55-1.127 2.63 2.63 0 0 0-.59-.07v.002Z" fill="#0E0E0E"/><path d="M54.376 29.731c.41.13.786.347 1.104.64.318.292.57.652.738 1.056a3.02 3.02 0 0 1-1.209.441 2.931 2.931 0 0 1-2.374-.744 3.02 3.02 0 0 1-.74-1.053 3.017 3.017 0 0 1 1.21-.445 2.93 2.93 0 0 1 1.27.105Z" fill="#E6D8CF"/><path d="M54.642 31.924a2.977 2.977 0 0 1-2.764-1.88.025.025 0 0 1 .01-.032 2.971 2.971 0 0 1 4.341 1.427.027.027 0 0 1-.01.032 2.971 2.971 0 0 1-1.577.453Zm-2.706-1.88a2.919 2.919 0 0 0 4.235 1.395 2.92 2.92 0 0 0-4.235-1.392v-.003Z" fill="#0E0E0E"/><path d="M55 30.282a.979.979 0 0 0-1.084 1.523c.52.133 1.068.121 1.582-.035A.976.976 0 0 0 55 30.282Z" fill="#161616"/><path d="M54.642 31.924c-.248 0-.495-.031-.735-.093a.035.035 0 0 1-.015-.01 1.002 1.002 0 0 1 1.114-1.565 1.003 1.003 0 0 1 .511 1.529.03.03 0 0 1-.014.01c-.28.085-.57.129-.861.129Zm-.716-.144a2.91 2.91 0 0 0 1.549-.034.952.952 0 1 0-1.549.034Z" fill="#0E0E0E"/><path d="M34.324 30.436c.265.601.54 1.192.984 1.685.52.58 1.236 1.027 2.034 1.038.726.01 1.382-.381 1.87-.892 1.075-1.128 1.378-2.654 1.29-4.163-.055-.924-.215-1.838-.291-2.76-.057-.703-.092-1.44.083-2.13.132-.516.389-1.026.84-1.331.43-.293 1.059-.394 1.515-.1.959.617.651 2.005 1.087 2.905.305.63.952.82 1.573.488.559-.3.806-.914 1.102-1.439.273-.484.623-.911 1.206-.997.583-.086 1.161.197 1.648.496 1.316.816 2.476 1.882 3.96 2.407.713.245 1.47.34 2.221.281.033 0 .066-.005.1-.008.968-3.405-.022-7.183-3.07-9.238-3.927-2.647-9.86-1.708-13.573 4.78-2.5 4.368-3.568 6.542-4.89 8.21.094.26.202.518.311.768Z" fill="#E69D49"/><path d="M37.371 33.186h-.029c-.728-.01-1.457-.383-2.054-1.047-.443-.493-.72-1.082-.988-1.692-.13-.296-.23-.54-.313-.77a.027.027 0 0 1 .004-.026c.958-1.206 1.769-2.657 3.113-5.06.51-.91 1.087-1.942 1.776-3.146.95-1.66 2.081-3.02 3.366-4.046 1.188-.95 2.477-1.59 3.833-1.907a8.075 8.075 0 0 1 6.414 1.164 7.669 7.669 0 0 1 3.053 4.127c.51 1.635.52 3.413.028 5.14a.027.027 0 0 1-.024.02l-.04.004-.059.004a5.572 5.572 0 0 1-2.235-.282c-1.014-.358-1.891-.98-2.74-1.58-.397-.28-.807-.572-1.226-.83-.445-.276-1.03-.58-1.626-.493-.612.09-.956.573-1.187.984a8.08 8.08 0 0 0-.143.267c-.244.457-.495.931-.968 1.183a1.204 1.204 0 0 1-.942.113 1.132 1.132 0 0 1-.668-.613c-.163-.338-.224-.75-.286-1.146-.1-.671-.202-1.365-.794-1.746-.47-.303-1.1-.161-1.485.1-.493.333-.723.9-.83 1.315-.178.704-.136 1.464-.082 2.121.034.41.085.824.135 1.225.062.501.125 1.022.156 1.536.103 1.765-.333 3.172-1.297 4.183-.557.579-1.216.898-1.862.898Zm-3.328-3.513c.082.223.18.463.306.753.266.605.54 1.19.98 1.677.586.654 1.301 1.019 2.014 1.03h.028c.63 0 1.277-.314 1.822-.885.953-1.002 1.385-2.393 1.282-4.142-.03-.513-.094-1.032-.156-1.533-.05-.401-.1-.817-.135-1.227-.054-.661-.097-1.427.084-2.139.108-.425.344-1.002.852-1.347.573-.387 1.188-.33 1.543-.1.613.394.716 1.1.819 1.783.058.395.118.803.279 1.134a1.081 1.081 0 0 0 .635.585 1.154 1.154 0 0 0 .9-.11c.459-.247.706-.71.946-1.16l.143-.268c.238-.421.591-.918 1.226-1.01.613-.092 1.21.22 1.662.5.421.261.832.552 1.23.834.845.597 1.718 1.217 2.726 1.575a5.505 5.505 0 0 0 2.214.28l.058-.005h.021c.483-1.712.472-3.472-.033-5.092a7.613 7.613 0 0 0-3.03-4.098 8.022 8.022 0 0 0-6.374-1.156c-1.348.314-2.63.952-3.812 1.897-1.276 1.02-2.403 2.376-3.35 4.03-.689 1.204-1.266 2.236-1.776 3.146-1.34 2.39-2.148 3.84-3.104 5.048Z" fill="#0E0E0E"/><path d="m48.464 34.134 3.202.42a1.222 1.222 0 0 0 1.381-1.198l.072-5.751-4.655 6.53Z" fill="#E34B4D"/><path d="M51.825 34.59c-.054 0-.108-.004-.162-.01l-3.203-.42a.026.026 0 0 1-.02-.016.027.027 0 0 1 0-.026l4.654-6.53a.026.026 0 0 1 .03-.01c.006.002.01.006.014.01.003.005.005.01.005.016l-.072 5.751a1.25 1.25 0 0 1-1.246 1.235Zm-3.313-.477 3.158.413a1.195 1.195 0 0 0 1.35-1.172l.068-5.665-4.576 6.424Z" fill="#0E0E0E"/><path d="m50.165 31.745-1.701 2.39 3.202.418a1.222 1.222 0 0 0 1.381-1.197l.015-1.232-2.897-.379Z" fill="#E6D8CF"/><path d="M51.825 34.59c-.054 0-.108-.004-.162-.01l-3.203-.42a.026.026 0 0 1-.02-.016.027.027 0 0 1 0-.026l1.702-2.39a.026.026 0 0 1 .025-.01l2.9.38a.028.028 0 0 1 .023.027l-.015 1.231a1.25 1.25 0 0 1-1.25 1.234Zm-3.313-.477 3.158.413a1.195 1.195 0 0 0 1.35-1.172l.015-1.207-2.857-.374-1.666 2.34Z" fill="#0E0E0E"/><path d="M50.927 31.292c1.017-1.186.95-2.913-.152-3.857-1.101-.945-2.818-.749-3.835.437-1.018 1.186-.95 2.913.152 3.857 1.101.945 2.818.75 3.835-.437Z" fill="#6DADDA"/><path d="M48.745 32.357c-.204 0-.406-.025-.603-.072a2.473 2.473 0 0 1-1.584-1.151c-.753-1.266-.3-2.992 1.01-3.848a2.78 2.78 0 0 1 2.16-.409 2.474 2.474 0 0 1 1.582 1.152c.754 1.266.301 2.992-1.008 3.848a2.842 2.842 0 0 1-1.557.48Zm.38-5.493a2.786 2.786 0 0 0-1.529.47c-1.289.84-1.73 2.533-.991 3.774a2.421 2.421 0 0 0 1.549 1.127 2.724 2.724 0 0 0 2.119-.4c1.289-.84 1.73-2.535.99-3.776a2.423 2.423 0 0 0-1.547-1.128 2.626 2.626 0 0 0-.588-.067h-.003Z" fill="#0E0E0E"/><path d="M47.05 27.78a.027.027 0 0 1-.017-.007l-2.994-2.65a.026.026 0 0 1-.006-.008.027.027 0 0 1 0-.02.027.027 0 0 1 .044-.009l2.993 2.65a.027.027 0 0 1-.002.042.026.026 0 0 1-.015.004l-.002-.003Z" fill="#0E0E0E"/><path d="M41.42 23.722c.851-.358 1.944 1.055.925 1.483-.165.071-.469.155-.634.027-.2-.157-.042-.277.153-.287.398-.02.737.497.774.86.023.228-.053.441-.31.479a.376.376 0 0 1-.152-.01" fill="#E69C9C"/><path d="M42.275 26.311a.456.456 0 0 1-.106-.013.027.027 0 0 1 .014-.052.372.372 0 0 0 .143.008c.295-.044.298-.33.286-.45-.03-.211-.12-.41-.258-.573-.108.045-.463.175-.658.023-.106-.083-.111-.153-.097-.197.024-.077.128-.131.265-.139.174-.008.35.08.505.249.21-.098.333-.249.358-.44.034-.27-.14-.6-.43-.82-.29-.22-.597-.272-.864-.16a.027.027 0 0 1-.035-.014.026.026 0 0 1 0-.02.027.027 0 0 1 .014-.015c.286-.12.62-.06.917.166.298.226.489.582.452.871-.018.143-.1.342-.375.474l.004.004c.138.169.227.371.257.586.029.287-.095.474-.331.509a.414.414 0 0 1-.061.003Zm-.388-1.34h-.023c-.11.005-.199.047-.214.101-.016.055.034.103.08.138.132.104.386.058.586-.022a.607.607 0 0 0-.43-.217Z" fill="#0E0E0E"/><path d="M46.502 28.548c-.1.213-.175.437-.223.667a2.944 2.944 0 0 0 4.082.974 2.943 2.943 0 0 0-3.86-1.641h.001Z" fill="#E6D8CF"/><path d="M48.8 30.665a2.971 2.971 0 0 1-2.544-1.436.026.026 0 0 1 0-.02 2.97 2.97 0 0 1 .23-.68 2.97 2.97 0 0 1 3.904 1.65.028.028 0 0 1 0 .019.028.028 0 0 1-.01.014 2.975 2.975 0 0 1-1.58.453Zm-2.492-1.455a2.918 2.918 0 0 0 4.02.968 2.914 2.914 0 0 0-3.806-1.609 2.95 2.95 0 0 0-.215.641Z" fill="#0E0E0E"/><path d="M49.156 29.023a.978.978 0 0 0-1.083 1.524c.52.133 1.067.12 1.581-.036a.978.978 0 0 0-.498-1.487Z" fill="#161616"/><path d="M48.801 30.665a2.97 2.97 0 0 1-.735-.093.025.025 0 0 1-.015-.01 1.003 1.003 0 1 1 1.625-.036.025.025 0 0 1-.014.01 2.96 2.96 0 0 1-.861.129Zm-.716-.144a2.91 2.91 0 0 0 1.549-.035.969.969 0 0 0 .117-.237.952.952 0 0 0-1.808-.595.952.952 0 0 0 .146.869l-.004-.002Z" fill="#0E0E0E"/><path d="M34.7 28.958c.751.491 1.682 1.114 1.823 1.218.414.298.316.819-.414 1.06-.73.24-1.472.171-2.578-1.37" fill="#AB795E"/><path d="M35.528 31.367c-.59 0-1.212-.358-2.023-1.483a.027.027 0 0 1 0-.03.029.029 0 0 1 .006-.008.028.028 0 0 1 .01-.004.028.028 0 0 1 .02.003.027.027 0 0 1 .008.008c1.181 1.64 1.933 1.56 2.551 1.36.368-.12.6-.323.635-.556.026-.167-.058-.333-.228-.456-.143-.102-1.067-.72-1.82-1.218a.027.027 0 0 1 .03-.045c.753.494 1.68 1.114 1.822 1.217.187.136.278.32.25.508-.04.254-.287.472-.672.6-.19.066-.389.101-.589.104Z" fill="#0E0E0E"/><path d="M24.325 23.222c.24-.12.5-.195.767-.222.829-.1 2.435-.282 2.435-.282s1.74.53 2.8.994c1.06.464 1.104 1.494 1.193 2.518.033.381.066.706.066.706s1.973 1.282 3.115 2.022L33.29 30.9s-3.08-.826-3.824-3.146l-4.169-.243" fill="#6DADDA"/><path d="M33.29 30.927h-.007c-.03-.007-3.086-.852-3.837-3.145l-4.15-.243a.026.026 0 0 1-.025-.029.026.026 0 0 1 .028-.025l4.168.244a.027.027 0 0 1 .025.019c.702 2.188 3.536 3.05 3.787 3.123l1.382-1.906-3.091-2.005a.028.028 0 0 1-.008-.008.032.032 0 0 1-.004-.011c0-.004-.033-.33-.066-.706l-.01-.128c-.085-.993-.166-1.93-1.167-2.368-1.017-.446-2.684-.959-2.793-.992-.104.012-1.635.186-2.429.282-.264.025-.522.1-.759.219a.027.027 0 0 1-.033-.013.027.027 0 0 1 .009-.035c.243-.122.506-.198.777-.225.818-.098 2.419-.28 2.434-.282h.011c.018.006 1.753.537 2.803.996 1.03.45 1.116 1.448 1.198 2.412l.011.128c.029.334.058.629.065.692.158.104 2.011 1.307 3.104 2.015a.028.028 0 0 1 .007.039l-1.41 1.942a.027.027 0 0 1-.01.007.027.027 0 0 1-.01.003Z" fill="#0E0E0E"/><path d="M30.078 23.606c-.195-.08-.406-.16-.619-.239l-1.681 3.211-1.782-3.684c-.329.039-.652.076-.904.107a2.219 2.219 0 0 0-.767.22l-1.254 4.633.414 1.21 4.672 1.192c1.897-3.336 2.472-5.12 1.921-6.65Z" fill="#E6D8CF"/><path d="M28.157 30.283h-.007L23.48 29.09a.027.027 0 0 1-.019-.017l-.414-1.21a.023.023 0 0 1 0-.016l1.253-4.63a.026.026 0 0 1 .006-.01.027.027 0 0 1 .008-.008c.243-.122.507-.198.777-.225l.906-.107a.028.028 0 0 1 .027.015l1.758 3.637 1.653-3.164a.027.027 0 0 1 .032-.013 18.659 18.659 0 0 1 .63.245.026.026 0 0 1 .005.01c.538 1.487.035 3.233-1.92 6.672a.026.026 0 0 1-.024.014Zm-4.651-1.242 4.639 1.184c1.933-3.403 2.434-5.134 1.91-6.598a15.72 15.72 0 0 0-.584-.226l-1.67 3.19a.028.028 0 0 1-.025.014.026.026 0 0 1-.024-.015l-1.772-3.667c-.322.037-.638.072-.884.104a2.17 2.17 0 0 0-.748.215l-1.249 4.613.407 1.186ZM25.671 50.03a.029.029 0 0 1-.014-.004.028.028 0 0 1-.01-.037c.527-.898 1.496-1.796 2.883-2.67a.028.028 0 0 1 .041.019.027.027 0 0 1-.013.027c-1.379.869-2.343 1.76-2.864 2.65a.027.027 0 0 1-.023.014Z" fill="#0E0E0E"/><path d="M32.407 57.592h-.006a.028.028 0 0 1-.017-.013.028.028 0 0 1-.003-.02c.358-1.328.424-4.13-.926-5.998-.788-1.09-1.92-1.682-3.366-1.762-2.208-.122-5.013.924-7.723 1.933-1.699.634-3.302 1.232-4.706 1.53a.027.027 0 0 1-.032-.022.028.028 0 0 1 .02-.032c1.4-.295 3.003-.893 4.7-1.526 2.716-1.014 5.526-2.062 7.744-1.94 1.461.082 2.607.682 3.404 1.785 1.36 1.883 1.296 4.706.936 6.043a.028.028 0 0 1-.025.022Z" fill="#0E0E0E"/><path d="M66.21 57.688H8.112v7.013h58.096v-7.012Z" fill="#AB795E"/><path d="M66.209 64.728H8.113a.027.027 0 0 1-.028-.027v-7.012a.027.027 0 0 1 .027-.027H66.21a.027.027 0 0 1 .027.026v7.013a.027.027 0 0 1-.028.027Zm-58.07-.054h58.043v-6.959H8.139v6.959Z" fill="#0E0E0E"/><path d="M40.626 53.311c.755 2.23 2.162 2.857 2.603 2.967.86.215 1.741-.594 1.063-1.59-.417-.61-1.383-1.392-1.837-3.046-.318-1.158-1.234-1.46-2.35-1.727-.936-.227-1.454-.463-2.41-.827-.709-.271-1.593-.452-2.751.286-1.51.965-3.366 2.138-5.556 2.823-1.302.408-.64 4.72 1.589 4.97h8.784" fill="#E69C9C"/><path d="M39.761 57.193h-8.783c-1.3-.143-2.12-1.68-2.258-3.119-.096-1.002.163-1.747.661-1.903 2.23-.699 4.148-1.925 5.549-2.82 1.165-.745 2.057-.566 2.776-.292.192.072.366.143.529.205.656.256 1.13.44 1.876.622 1.146.278 2.05.584 2.37 1.749.342 1.244.978 1.997 1.442 2.547.154.183.287.341.39.491.296.43.327.88.087 1.225-.241.346-.722.52-1.178.405-.18-.044-1.783-.507-2.622-2.983a.027.027 0 0 1 .028-.036.027.027 0 0 1 .023.019c.83 2.448 2.406 2.905 2.584 2.948.436.108.885-.046 1.12-.384.227-.326.196-.75-.086-1.163-.1-.149-.233-.306-.386-.487-.469-.554-1.11-1.312-1.454-2.568-.313-1.137-1.201-1.437-2.33-1.71-.75-.183-1.225-.368-1.883-.625l-.529-.205c-.706-.27-1.582-.445-2.728.286-1.403.898-3.325 2.127-5.562 2.826-.473.149-.716.874-.624 1.848.136 1.417.938 2.928 2.207 3.07h8.781a.026.026 0 0 1 .025.016.027.027 0 0 1-.025.038Z" fill="#0E0E0E"/><path d="M40.605 51.574c1.058 1.662 1.285 3.626-.433 5.25-1.278 1.207-2.077.68-2.418.226-.341-.453-.075-.981.417-1.549.49-.567.604-1.398.453-1.7" fill="#E69C9C"/><path d="M38.72 57.592a1.18 1.18 0 0 1-.101-.005c-.46-.039-.752-.343-.885-.52-.394-.524.016-1.12.416-1.583.49-.565.595-1.38.45-1.67a.027.027 0 0 1 .047-.023c.152.302.047 1.145-.456 1.728-.573.664-.703 1.131-.415 1.516.128.17.408.462.847.5.461.041.977-.205 1.53-.728.875-.827 2.094-2.603.43-5.217a.027.027 0 0 1 .018-.04.025.025 0 0 1 .02.004.027.027 0 0 1 .007.008c.567.89.853 1.807.828 2.654-.028.977-.454 1.862-1.266 2.63-.526.494-1.017.746-1.47.746Z" fill="#0E0E0E"/><path d="M38.815 52.669c.869 1.473.758 2.721-.037 3.475-1.04.987-2.999 1.289-3.453.776-.467-.526-.042-1.269-.042-1.269s1.343-.248 2.322-1.081" fill="#E69C9C"/><path d="M36.153 57.193h-.109c-.352-.014-.61-.102-.742-.253-.474-.533-.049-1.289-.045-1.299a.025.025 0 0 1 .019-.013c.013 0 1.346-.257 2.308-1.074a.027.027 0 0 1 .038 0 .027.027 0 0 1 .008.019.026.026 0 0 1-.008.019c-.922.788-2.18 1.057-2.321 1.086-.048.091-.375.755.044 1.226.121.137.372.22.704.235.763.032 1.973-.311 2.71-1.012.84-.799.852-2.053.033-3.442a.027.027 0 0 1-.004-.01.027.027 0 0 1 .006-.02.026.026 0 0 1 .008-.007.028.028 0 0 1 .037.01c.833 1.412.817 2.69-.043 3.509-.725.683-1.852 1.026-2.643 1.026Z" fill="#0E0E0E"/><path d="M38.539 51.54c.058-.204.286-.375.488-.418.358-.077.464.258.267.518-.066.087-.174.21-.265.095-.157-.198.413-.734.604-.763" fill="#E69C9C"/><path d="M39.112 51.809a.13.13 0 0 1-.104-.057.203.203 0 0 1-.01-.21c.066-.138.16-.262.274-.364a.303.303 0 0 0-.24-.03c-.184.04-.41.2-.467.399a.028.028 0 0 1-.013.016.027.027 0 0 1-.02.002.027.027 0 0 1-.02-.033c.064-.215.309-.393.51-.436a.353.353 0 0 1 .29.045.805.805 0 0 1 .317-.196h.01a.027.027 0 0 1 .017.013.028.028 0 0 1-.019.04.756.756 0 0 0-.286.18l.02.03c.078.12.055.3-.057.448-.053.072-.124.152-.203.153Zm.2-.594c-.11.097-.2.215-.263.347a.155.155 0 0 0 0 .157.079.079 0 0 0 .061.036c.055 0 .118-.075.16-.13.099-.13.12-.287.056-.389l-.014-.021Z" fill="#0E0E0E"/><path d="M31.314 40.227c-.41-.888-1.009-1.79-.55-3.088l.071-.296-1.205-1.258c-.358 1.799-1.146 1.594-1.639 2.745-.354.829.343.893 1.256 1.897 1.19 1.31 2.501.943 2.067 0Z" fill="#6DADDA"/><path d="M30.786 41.107c-.43 0-1.012-.258-1.56-.86-.239-.258-.496-.499-.77-.72-.477-.399-.74-.619-.49-1.205.201-.47.456-.72.7-.962.359-.351.725-.716.937-1.777a.027.027 0 0 1 .046-.013l1.206 1.257a.026.026 0 0 1 .006.025l-.071.297c-.398 1.124 0 1.94.385 2.73.055.114.11.227.163.34.152.33.103.62-.132.776a.754.754 0 0 1-.42.112Zm-1.138-5.466c-.214 1.04-.584 1.403-.94 1.755-.243.237-.493.484-.69.945-.234.549 0 .747.475 1.146.276.223.536.465.777.725.738.813 1.535.987 1.909.74.215-.144.256-.402.113-.71a18.123 18.123 0 0 0-.163-.339c-.39-.8-.792-1.626-.388-2.77l.068-.279-1.16-1.213Z" fill="#0E0E0E"/><path d="M31.314 40.227c-.344-.745-.82-1.504-.695-2.49a1.472 1.472 0 0 0-.23-.02 3.444 3.444 0 0 0-.401.049c-.173.02-.348.02-.498-.08-.243-.163-.313-.451-.46-.678-.348.43-.746.638-1.039 1.322-.354.829.343.893 1.256 1.897 1.19 1.31 2.501.943 2.067 0Z" fill="#E6D8CF"/><path d="M30.786 41.107c-.43 0-1.012-.258-1.56-.86-.239-.258-.496-.499-.77-.72-.477-.399-.74-.619-.49-1.205.201-.47.456-.72.7-.962a4.15 4.15 0 0 0 .344-.366.028.028 0 0 1 .023-.01.026.026 0 0 1 .02.012c.045.073.086.148.123.226.082.165.167.336.33.444.148.1.325.094.479.076a2.05 2.05 0 0 0 .134-.02c.09-.017.18-.027.27-.03.079 0 .157.008.235.021a.027.027 0 0 1 .022.03c-.106.832.215 1.495.53 2.136.055.114.11.227.162.34.152.33.103.62-.132.776a.754.754 0 0 1-.42.112Zm-1.758-4.05a4.514 4.514 0 0 1-.323.342c-.242.237-.492.484-.69.945-.233.548 0 .747.475 1.146.276.223.536.465.777.725.738.812 1.535.987 1.909.74.215-.144.256-.402.113-.71-.051-.113-.107-.225-.162-.338-.313-.645-.636-1.305-.537-2.141a1.375 1.375 0 0 0-.201-.017 1.687 1.687 0 0 0-.261.03l-.137.02c-.163.02-.353.025-.516-.084-.174-.117-.262-.294-.347-.466a1.83 1.83 0 0 0-.1-.195v.003Z" fill="#0E0E0E"/><path d="M29.424 39.531c-.69-.757-1.257-.98-1.339-1.4-.032.06-.064.126-.094.196-.354.829.343.894 1.256 1.897 1.162 1.278 2.435.96 2.094.068-.383.225-1.173.06-1.917-.76Z" fill="#E6D8CF"/><path d="M30.786 41.107c-.505 0-1.129-.39-1.56-.865a7.372 7.372 0 0 0-.77-.72c-.477-.399-.74-.619-.49-1.205.03-.071.062-.135.095-.199a.024.024 0 0 1 .012-.011.024.024 0 0 1 .016-.002.026.026 0 0 1 .023.02c.045.237.249.407.556.664.275.223.535.465.776.725.722.794 1.494.981 1.884.755a.03.03 0 0 1 .038.016c.119.308.053.576-.176.716a.756.756 0 0 1-.404.106Zm-2.709-2.901a2.576 2.576 0 0 0-.061.133c-.234.549 0 .747.474 1.146.276.223.536.465.777.725.725.797 1.517.98 1.895.748.2-.124.26-.35.165-.624-.416.215-1.198.017-1.924-.78a7.283 7.283 0 0 0-.77-.72c-.274-.234-.483-.406-.556-.626v-.002Z" fill="#0E0E0E"/><path d="m31.848 32.813-2.741-3.215-2.892-1.128-.805 2.34 1.179 1.56 2.837 1.469-1.02 2.228 2.359 1.084c.46-.996.965-2.119 1.295-2.856a1.4 1.4 0 0 0-.212-1.482Z" fill="#E6D8CF"/><path d="M30.765 37.18h-.012l-2.359-1.086a.025.025 0 0 1-.013-.015.025.025 0 0 1 .001-.02l1.009-2.206-2.815-1.457a.02.02 0 0 1-.008-.008l-1.18-1.562a.025.025 0 0 1-.004-.024l.805-2.34a.028.028 0 0 1 .015-.015.03.03 0 0 1 .02 0l2.893 1.127a.03.03 0 0 1 .01.008l2.742 3.213a1.438 1.438 0 0 1 .214 1.513c-.34.758-.841 1.87-1.296 2.856a.028.028 0 0 1-.009.01.028.028 0 0 1-.013.005Zm-2.323-1.124 2.31 1.061c.452-.98.947-2.077 1.284-2.831a1.383 1.383 0 0 0-.208-1.456l-2.737-3.21-2.86-1.114-.788 2.298 1.167 1.546 2.832 1.466a.027.027 0 0 1 .012.035l-1.012 2.205Z" fill="#0E0E0E"/><path d="M27.075 41.993c-.41-.888-1.008-1.79-.55-3.087l.072-.296-1.206-1.258c-.358 1.798-1.146 1.594-1.639 2.745-.354.829.343.893 1.256 1.896 1.192 1.31 2.502.944 2.067 0Z" fill="#6DADDA"/><path d="M26.547 42.87c-.43 0-1.012-.257-1.56-.859a7.352 7.352 0 0 0-.77-.72c-.477-.399-.74-.619-.489-1.205.201-.47.455-.72.7-.962.358-.351.725-.716.936-1.777a.027.027 0 0 1 .02-.02.026.026 0 0 1 .026.006l1.206 1.258a.026.026 0 0 1 .007.012.027.027 0 0 1 0 .013l-.072.297c-.397 1.124 0 1.94.385 2.73.056.113.111.227.163.339.152.33.104.621-.132.778a.759.759 0 0 1-.42.11Zm-1.14-5.462c-.215 1.04-.585 1.403-.941 1.755-.242.237-.492.484-.689.945-.235.548 0 .747.474 1.146.276.223.536.465.777.725.739.812 1.535.987 1.91.74.215-.144.255-.402.112-.71-.051-.113-.107-.225-.162-.34-.39-.798-.792-1.625-.389-2.768l.072-.28-1.164-1.213Z" fill="#0E0E0E"/><path d="M27.075 41.993c-.344-.744-.82-1.504-.694-2.49a1.472 1.472 0 0 0-.231-.02 3.432 3.432 0 0 0-.4.05c-.174.02-.348.02-.498-.08-.244-.164-.314-.452-.46-.678-.35.43-.747.637-1.04 1.322-.354.829.343.893 1.256 1.896 1.192 1.31 2.502.944 2.067 0Z" fill="#E6D8CF"/><path d="M26.547 42.87c-.43 0-1.012-.257-1.56-.859a7.363 7.363 0 0 0-.77-.72c-.477-.399-.74-.619-.489-1.205.201-.47.455-.72.7-.962.122-.116.236-.238.343-.366a.03.03 0 0 1 .023-.01c.004 0 .008.001.011.004a.027.027 0 0 1 .01.008c.044.073.086.148.123.226.081.165.166.336.328.444.149.1.326.094.48.072.045-.005.09-.012.135-.02.089-.016.179-.026.269-.03.079.001.157.008.235.021a.028.028 0 0 1 .023.03c-.107.833.215 1.496.53 2.137.054.114.11.226.16.338.153.331.105.622-.13.778a.758.758 0 0 1-.421.115Zm-1.758-4.05a4.5 4.5 0 0 1-.323.343c-.242.237-.492.484-.689.945-.235.548 0 .747.474 1.146.276.223.536.465.777.725.739.812 1.535.987 1.91.74.215-.144.255-.402.112-.71-.051-.113-.107-.225-.162-.339-.312-.644-.635-1.304-.537-2.14a1.31 1.31 0 0 0-.2-.017 1.666 1.666 0 0 0-.262.03l-.136.02c-.164.02-.354.025-.516-.084-.174-.117-.263-.294-.348-.465a2.306 2.306 0 0 0-.1-.193Z" fill="#0E0E0E"/><path d="M25.185 41.3c-.69-.757-1.256-.98-1.337-1.4-.033.061-.064.126-.094.197-.355.829.343.893 1.255 1.896 1.163 1.279 2.435.96 2.095.072-.384.218-1.174.055-1.92-.764Z" fill="#E6D8CF"/><path d="M26.547 42.876c-.505 0-1.128-.39-1.56-.865a7.363 7.363 0 0 0-.77-.72c-.477-.399-.74-.619-.489-1.205.03-.071.06-.135.095-.199a.026.026 0 0 1 .027-.013c.006 0 .01.003.015.006a.026.026 0 0 1 .008.014c.046.237.249.407.556.664.277.223.537.465.78.725.533.587 1.374 1.05 1.884.755a.032.032 0 0 1 .022 0 .027.027 0 0 1 .016.016c.118.308.052.573-.176.716a.757.757 0 0 1-.407.106Zm-2.709-2.901a2.57 2.57 0 0 0-.06.133c-.235.548 0 .747.474 1.146.275.223.535.465.776.725.725.797 1.518.98 1.895.748.201-.124.26-.35.165-.624-.416.215-1.198.017-1.923-.78a7.352 7.352 0 0 0-.77-.72c-.277-.235-.483-.409-.557-.628Z" fill="#0E0E0E"/><path d="M23.65 28.702c-.907 1.575-1.301 2.66-.806 3.757l2.63 1.538-1.786 3.634 2.837 1.275 1.854-3.66a1.531 1.531 0 0 0 .005-1.374l-1.413-2.833" fill="#E6D8CF"/><path d="M26.525 38.933h-.011l-2.837-1.274a.025.025 0 0 1-.009-.007.025.025 0 0 1-.005-.01.026.026 0 0 1 0-.02l1.774-3.611-2.606-1.53a.025.025 0 0 1-.011-.012c-.501-1.115-.086-2.23.806-3.78a.027.027 0 0 1 .027-.013c.004 0 .007 0 .01.002.006.004.01.01.012.017a.028.028 0 0 1-.002.02c-1.163 2.021-1.179 2.899-.808 3.724l2.622 1.534c.006.004.01.01.012.016a.026.026 0 0 1-.002.02l-1.773 3.608 2.788 1.253 1.843-3.636a1.508 1.508 0 0 0 .004-1.35l-1.412-2.832a.027.027 0 0 1 .012-.036.026.026 0 0 1 .01-.002.026.026 0 0 1 .026.015l1.412 2.831a1.565 1.565 0 0 1-.004 1.399l-1.854 3.66a.028.028 0 0 1-.024.014Z" fill="#0E0E0E"/><path d="M25.109 25.684c-.358 1.002-1.01 1.524-1.01 1.524.397.546 1.06.894 1.01 1.458-.05.564-.447 1.093-1.06 1.027-.613-.066-1.11-.713-1.59-1.193-.481-.48-1.193-1.044-.932-1.839.262-.795.845-1.126 1.54-2.153.454-.67.823-1.064 1.254-1.29 1.036.128 1.152 1.439.788 2.466Z" fill="#6DADDA"/><path d="M24.15 29.725c-.034 0-.07-.002-.104-.006-.516-.056-.942-.505-1.354-.939a13.28 13.28 0 0 0-.252-.26l-.161-.158c-.453-.439-1.016-.984-.774-1.71.16-.478.43-.787.77-1.179a9.62 9.62 0 0 0 .774-.98c.477-.703.842-1.079 1.264-1.295a1.001 1.001 0 0 1 .781.483c.291.472.307 1.262.04 2.014a3.73 3.73 0 0 1-1 1.519c.133.168.277.326.433.473.31.306.602.594.568.982-.023.33-.174.636-.42.856a.877.877 0 0 1-.564.2Zm.18-6.475c-.41.215-.768.582-1.236 1.273a9.706 9.706 0 0 1-.778.985c-.337.388-.604.694-.76 1.162-.231.693.295 1.203.76 1.653l.162.158c.083.084.17.175.253.263.406.43.824.869 1.32.922a.827.827 0 0 0 .63-.184c.235-.21.38-.504.401-.819.033-.362-.239-.63-.552-.94a4.207 4.207 0 0 1-.453-.5.027.027 0 0 1 .005-.037 3.638 3.638 0 0 0 1.002-1.513l.026.01-.026-.01c.262-.737.248-1.51-.035-1.968a.947.947 0 0 0-.72-.455ZM35.724 30.365a.028.028 0 0 1-.025-.018.026.026 0 0 1 .008-.03.028.028 0 0 1 .009-.005l2.562-.912a.028.028 0 0 1 .036.027.026.026 0 0 1-.018.024l-2.56.914a.02.02 0 0 1-.012 0Z" fill="#0E0E0E"/><path d="m27.116 26.115-1.493-.383-.477 1.862 1.493.382.477-1.861Z" fill="#E6D8CF"/><path d="M26.636 28.001h-.006l-1.493-.38a.028.028 0 0 1-.017-.012.028.028 0 0 1-.003-.02l.477-1.863a.027.027 0 0 1 .033-.02l1.494.383a.028.028 0 0 1 .016.012.03.03 0 0 1 0 .021l-.478 1.862a.026.026 0 0 1-.023.017Zm-1.46-.43 1.441.37.464-1.81-1.443-.365-.462 1.806Z" fill="#0E0E0E"/><path d="m26.129 26.855-.508-1.122 1.492.383-.984.74Z" fill="#E6D8CF"/><path d="M26.129 26.882h-.007a.025.025 0 0 1-.018-.015l-.508-1.122a.027.027 0 0 1 .004-.029.026.026 0 0 1 .027-.008l1.494.383c.004 0 .009.003.012.007a.027.027 0 0 1 .007.013.026.026 0 0 1-.01.027l-.986.739a.025.025 0 0 1-.015.005Zm-.46-1.109.47 1.041.913-.686-1.384-.355Z" fill="#0E0E0E"/><path d="m28.699 26.523-.477 1.861.832.215a16.95 16.95 0 0 0 .793-1.78l-1.148-.296Z" fill="#E6D8CF"/><path d="M29.054 28.624h-.006l-.833-.215a.025.025 0 0 1-.017-.012.026.026 0 0 1-.003-.02l.478-1.862a.026.026 0 0 1 .012-.017.029.029 0 0 1 .02 0l1.146.294a.026.026 0 0 1 .017.014.025.025 0 0 1 0 .021 16.656 16.656 0 0 1-.793 1.782.026.026 0 0 1-.02.015Zm-.8-.26.788.202c.29-.562.547-1.14.772-1.731l-1.096-.28-.464 1.81Z" fill="#0E0E0E"/><path d="m28.699 26.523.508 1.12.447-.336c.072-.169.135-.333.193-.492l-1.148-.293Z" fill="#E6D8CF"/><path d="M29.207 27.671H29.2a.028.028 0 0 1-.018-.015l-.508-1.123a.029.029 0 0 1-.002-.015c.001-.005.003-.01.006-.013a.028.028 0 0 1 .027-.009l1.146.294a.025.025 0 0 1 .01.005.024.024 0 0 1 .01.02l-.003.01c-.06.163-.124.33-.193.493a.03.03 0 0 1-.009.012l-.447.335a.028.028 0 0 1-.012.006Zm-.46-1.11.472 1.041.415-.311c.063-.152.123-.305.18-.456l-1.068-.273Z" fill="#0E0E0E"/><path d="m29.762 28.214-3.163-.985-.849 2.726 3.164.985.848-2.726Z" fill="#161616"/><path d="M28.917 30.965h-.008l-3.163-.986a.027.027 0 0 1-.018-.034l.848-2.725a.027.027 0 0 1 .013-.016.028.028 0 0 1 .02 0l3.164.984a.028.028 0 0 1 .017.033l-.848 2.727a.03.03 0 0 1-.013.015.024.024 0 0 1-.012.002Zm-3.13-1.03 3.112.969.832-2.675-3.112-.967-.832 2.673Z" fill="#0E0E0E"/><path d="m28.84 27.557-1.11-.346-.192.617 1.11.346.193-.617Z" fill="#E6D8CF"/><path d="M28.652 28.199h-.006l-1.11-.346a.027.027 0 0 1-.019-.034l.192-.616a.028.028 0 0 1 .034-.018l1.11.345a.027.027 0 0 1 .018.034l-.191.617a.032.032 0 0 1-.014.016c-.005.002-.01.003-.014.002Zm-1.075-.39 1.06.33.176-.566-1.06-.33-.176.566Z" fill="#0E0E0E"/><path d="m26.215 28.47-.152.488 1.514.47s.018.324-.464.561c-.482.237-.112.532-1.05.502-.937-.03-1.738-.807-1.738-.807l.787-1.084a2.02 2.02 0 0 1 1.103-.13Z" fill="#AB795E"/><path d="M26.197 30.517h-.135c-.937-.034-1.747-.807-1.756-.814a.027.027 0 0 1-.006-.018c0-.006.002-.012.006-.017l.788-1.084a.02.02 0 0 1 .01-.009 2.058 2.058 0 0 1 1.13-.124.026.026 0 0 1 .008.008.026.026 0 0 1 0 .022l-.143.461 1.488.462a.028.028 0 0 1 .019.025c0 .013.014.344-.478.587a.633.633 0 0 0-.287.257c-.088.134-.16.244-.644.244Zm-1.837-.84c.12.11.86.754 1.704.784.577.021.645-.08.733-.22a.672.672 0 0 1 .305-.275c.399-.197.444-.449.448-.519l-1.495-.464a.028.028 0 0 1-.016-.013.03.03 0 0 1 0-.02l.143-.458a2.011 2.011 0 0 0-1.051.127l-.77 1.059Z" fill="#0E0E0E"/><path d="M30.626 23.029c.298-.398.276-.918-.049-1.163-.325-.244-.831-.12-1.13.278-.298.397-.277.918.049 1.162.325.244.831.12 1.13-.277Z" fill="#E6D8CF"/><path d="M29.884 23.46a.66.66 0 0 1-.403-.13.698.698 0 0 1-.27-.545c-.005-.237.07-.468.216-.656.306-.408.83-.535 1.167-.282.336.253.358.791.053 1.2a.982.982 0 0 1-.763.412Zm.307-1.69a.93.93 0 0 0-.72.392.978.978 0 0 0-.206.622.644.644 0 0 0 .248.5c.313.236.803.115 1.092-.27.29-.386.27-.89-.043-1.126a.608.608 0 0 0-.371-.117Z" fill="#0E0E0E"/><path d="m28.382 24.015-.422.636c-.522-.203-1.1-1.44-1.416-1.82.566-.6 1.331-1.804 2.056-2.528.725-.724 1.596-.64 2.131-.066.536.574.52 1.424-.174 2.23-.67.78-1.428 1.718-1.428 1.718s-1.027.09-1.567-1.041" fill="#E69C9C"/><path d="M27.96 24.678h-.01c-.366-.143-.753-.772-1.064-1.28-.11-.19-.23-.373-.363-.548a.027.027 0 0 1 0-.036c.25-.264.54-.648.847-1.056.396-.525.805-1.067 1.21-1.472.352-.353.758-.538 1.172-.527a1.396 1.396 0 0 1 .997.462c.56.602.493 1.491-.173 2.265a74.889 74.889 0 0 0-1.436 1.726 1.576 1.576 0 0 1-.75-.16l-.409.62a.026.026 0 0 1-.02.006Zm-1.38-1.846c.126.173.244.352.351.537.302.49.675 1.098 1.019 1.249l.394-.596a1.83 1.83 0 0 1-.809-.88.026.026 0 0 1 .016-.025.027.027 0 0 1 .036.012c.496 1.04 1.418 1.032 1.529 1.027.08-.1.792-.976 1.42-1.707.645-.752.717-1.613.175-2.194a1.345 1.345 0 0 0-.96-.445c-.396-.008-.787.17-1.132.512-.402.402-.81.943-1.205 1.466-.301.4-.586.778-.834 1.044Z" fill="#0E0E0E"/><path d="M30.731 20.237c-.535-.573-1.406-.658-2.131.066-.725.724-1.49 1.928-2.056 2.528.316.38.894 1.617 1.416 1.82l.422-.636c.23.118.487.175.746.168 0 0 .758-.935 1.43-1.719.692-.803.699-1.663.173-2.227Z" fill="#AB795E"/><path d="M27.96 24.678h-.01c-.366-.143-.753-.772-1.064-1.28-.11-.19-.23-.373-.363-.548a.027.027 0 0 1 0-.036c.25-.264.54-.648.847-1.056.396-.525.805-1.067 1.21-1.472.352-.353.758-.535 1.172-.527a1.396 1.396 0 0 1 .997.462c.56.602.493 1.491-.173 2.265a74.75 74.75 0 0 0-1.436 1.726 1.539 1.539 0 0 1-.75-.158l-.409.617a.026.026 0 0 1-.02.007Zm-1.38-1.846c.126.173.244.352.351.537.302.49.675 1.097 1.019 1.248l.407-.614v-.005a.026.026 0 0 1 .033-.009c.224.114.472.171.723.167.08-.1.793-.976 1.42-1.707.645-.752.717-1.613.175-2.194a1.344 1.344 0 0 0-.96-.445c-.398-.006-.787.17-1.132.512-.402.402-.81.943-1.205 1.466-.298.4-.583.778-.831 1.044Z" fill="#0E0E0E"/><path d="M27.602 22.62c.336 0 .485-.28.532-.568.053-.32.046-.747.394-.883 1.022-.402 1.79.762 2.503.47.16-.528.047-1.03-.3-1.402-.535-.573-1.406-.658-2.131.066-.524.524-1.07 1.298-1.545 1.913.118.212.297.404.547.403Z" fill="#161616"/><path d="M27.6 22.647c-.215 0-.415-.143-.57-.417a.028.028 0 0 1 0-.03c.11-.143.223-.29.338-.444.396-.524.805-1.067 1.211-1.472.352-.353.759-.535 1.172-.528a1.398 1.398 0 0 1 .997.463c.358.386.469.893.305 1.428a.026.026 0 0 1-.015.017c-.335.138-.683-.038-1.05-.224-.426-.215-.909-.46-1.453-.246-.277.108-.316.41-.353.7l-.023.162c-.037.22-.159.59-.56.59h.001Zm-.513-.43c.101.175.27.375.513.375.358 0 .472-.343.506-.546.01-.051.016-.105.023-.16.038-.292.08-.624.387-.744.567-.222 1.06.028 1.496.249.352.178.686.347.995.227.151-.512.046-.996-.297-1.361a1.345 1.345 0 0 0-.96-.446c-.398-.005-.788.17-1.133.512-.402.403-.81.944-1.205 1.467-.11.147-.22.292-.325.428v-.001Z" fill="#0E0E0E"/><path d="M30.731 20.237a1.475 1.475 0 0 0-.43-.32c-.993.104-1.38.552-1.882 1.135l-.168.194a.199.199 0 1 0 .299.263c.06-.068.116-.134.17-.198.56-.65.881-1.022 2.055-1.019-.014-.018-.028-.037-.044-.055Z" fill="#E6D8CF"/><path d="M28.402 21.603a.226.226 0 0 1-.17-.374l.168-.195c.502-.58.894-1.038 1.9-1.146a.025.025 0 0 1 .014 0 1.485 1.485 0 0 1 .466.361l.017.02a.027.027 0 0 1 .006.015c0 .005 0 .01-.002.015a.028.028 0 0 1-.01.01.027.027 0 0 1-.015.005h-.012c-1.153 0-1.462.358-2.021 1.01-.056.064-.112.13-.172.197a.228.228 0 0 1-.17.082Zm1.896-1.658c-.979.107-1.366.555-1.857 1.124l-.169.195a.171.171 0 0 0 .14.283.176.176 0 0 0 .119-.056l.17-.197c.545-.633.876-1.02 2.022-1.027l-.01-.01a1.433 1.433 0 0 0-.415-.312Z" fill="#0E0E0E"/><path d="M29.126 22.129c.265.352.797.716 1.276.52l-1.276-.52Z" fill="#AB795E"/><path d="M30.122 22.728c-.418 0-.819-.32-1.018-.584a.028.028 0 0 1-.005-.02c.001-.007.005-.014.01-.018a.027.027 0 0 1 .038.006c.236.312.762.706 1.245.51a.027.027 0 0 1 .02 0 .028.028 0 0 1 .01.006.027.027 0 0 1 .006.03.027.027 0 0 1-.015.014.77.77 0 0 1-.29.056Z" fill="#0E0E0E"/><path d="M28.61 21.799c.263-.423.196-.94-.15-1.156-.346-.216-.84-.048-1.103.374-.264.423-.197.94.15 1.156.345.216.84.048 1.103-.374Z" fill="#E6D8CF"/><path d="M27.85 22.492a.656.656 0 0 1-.568-.325.699.699 0 0 1-.096-.296 1.075 1.075 0 0 1 .697-1.103.697.697 0 0 1 .605.058.697.697 0 0 1 .312.52 1.074 1.074 0 0 1-.698 1.107.798.798 0 0 1-.251.039Zm.287-1.715a.74.74 0 0 0-.234.04 1.021 1.021 0 0 0-.66 1.048.62.62 0 0 0 .846.533 1.02 1.02 0 0 0 .66-1.047.646.646 0 0 0-.286-.482.601.601 0 0 0-.329-.092h.003Z" fill="#0E0E0E"/><path d="M27.627 21.97c-.02-.097.006-.367.113-.421.128-.065.143.123.174.199a.904.904 0 0 1 .105-.379.525.525 0 0 1 .233-.243" fill="#E6D8CF"/><path d="M27.627 21.996a.027.027 0 0 1-.027-.022c-.02-.103.006-.388.128-.449a.112.112 0 0 1 .099-.008.167.167 0 0 1 .076.101.865.865 0 0 1 .093-.262c.052-.11.138-.2.247-.256a.027.027 0 0 1 .02.002.027.027 0 0 1 .014.014.025.025 0 0 1 .002.01c0 .004 0 .008-.002.011a.026.026 0 0 1-.015.014.5.5 0 0 0-.22.231.893.893 0 0 0-.102.368.026.026 0 0 1-.007.017.026.026 0 0 1-.015.007.025.025 0 0 1-.03-.017.446.446 0 0 1-.015-.053c-.014-.051-.033-.122-.068-.138a.062.062 0 0 0-.054.007c-.086.044-.119.287-.098.39a.028.028 0 0 1-.02.032h-.006Z" fill="#0E0E0E"/><path d="m30.15 22.167-1.198 1.38.848.126a.264.264 0 0 0 .302-.251l.048-1.255Z" fill="#E34B4D"/><path d="M29.839 23.704a.281.281 0 0 1-.043-.003l-.848-.126a.026.026 0 0 1-.02-.017.027.027 0 0 1 .004-.027l1.196-1.38a.026.026 0 0 1 .03-.008.027.027 0 0 1 .017.026l-.046 1.255a.291.291 0 0 1-.287.28h-.003Zm-.835-.176.8.119a.238.238 0 0 0 .274-.229l.043-1.179-1.117 1.289Z" fill="#0E0E0E"/><path d="M71.108 39.452H51.966a1.336 1.336 0 0 0-1.27.92l-5.229 15.954H29.283v1.361H66.21l5.641-17.209a.785.785 0 0 0-.744-1.026Z" fill="#E6D8CF"/><path d="M66.211 57.715H29.28a.026.026 0 0 1-.02-.008.026.026 0 0 1-.008-.019v-1.36a.026.026 0 0 1 .018-.025.026.026 0 0 1 .01-.002h16.167l5.224-15.935a1.361 1.361 0 0 1 1.296-.94h19.142a.811.811 0 0 1 .77 1.063l-5.642 17.208a.026.026 0 0 1-.025.018Zm-36.906-.054h36.887l5.635-17.187a.756.756 0 0 0-.716-.993H51.966a1.308 1.308 0 0 0-1.246.902l-5.227 15.954a.028.028 0 0 1-.01.013.027.027 0 0 1-.016.006H29.305v1.305Z" fill="#0E0E0E"/><path d="M57.818 49.077c.017-.465 1.427-1.533 1.761-.954.221.382-.614 1.166-.947 1.159-.015-.31.686-.706.961-.641.43.101.116.654-.054.866.308-.244 1.055-.43.848.079" fill="#E6D8CF"/><path d="M60.387 49.612h-.01a.028.028 0 0 1-.009-.005.028.028 0 0 1-.006-.01.025.025 0 0 1-.002-.01l.002-.01c.05-.12.045-.204-.013-.247-.143-.106-.573.025-.794.2a.027.027 0 0 1-.036 0 .027.027 0 0 1 0-.036c.137-.17.317-.494.253-.68a.229.229 0 0 0-.182-.144.313.313 0 0 0-.092-.006c-.221.332-.634.645-.86.645h-.005a.026.026 0 0 1-.026-.025c-.005-.114.076-.247.23-.376.182-.15.399-.253.63-.297l.02-.033c.072-.126.149-.306.072-.44-.077-.135-.242-.188-.472-.131-.51.127-1.228.748-1.24 1.074a.026.026 0 0 1-.026.026.027.027 0 0 1-.026-.027c.012-.35.742-.989 1.28-1.122.253-.064.437-.01.532.155.072.124.047.296-.072.495.025 0 .049.004.072.009a.28.28 0 0 1 .22.178c.062.176-.06.435-.175.612.237-.135.588-.23.736-.12.056.042.106.13.031.311a.027.027 0 0 1-.032.014Zm-.963-.94a1.35 1.35 0 0 0-.554.277c-.128.106-.202.215-.211.305.202-.02.557-.293.765-.582Z" fill="#0E0E0E"/></svg>